; NON-PLATED HOLES START AT T1
; THROUGH (PLATED) HOLES START AT T100
M48
INCH
T100C0.022334
T101C0.031496
T102C0.040000
T103C0.043307
T104C0.035000
%
T100
X006326Y013356
X015300Y013356
X006326Y007365
X015300Y007365
X006326Y017349
X015300Y017349
X006326Y015352
X006326Y004369
X015300Y015352
X015300Y004369
X006326Y009362
X006326Y012357
X015300Y009362
X015300Y012357
X006326Y010360
X015300Y010360
X006326Y006366
X015300Y006366
X006326Y014354
X015300Y014354
X006326Y008363
X015300Y008363
X006326Y011359
X006326Y018348
X015300Y011359
X015300Y018348
X006326Y016351
X006326Y005368
X015300Y016351
X015300Y005368
T101
X006300Y015366
X006300Y008366
X015300Y017366
X006300Y012366
X006300Y005366
X015300Y014366
X015300Y007366
X015300Y011366
X015300Y004366
X006300Y017366
X006300Y014366
X006300Y007366
X015300Y016366
X006300Y011366
X015300Y015266
X015300Y009366
X006300Y004366
X015300Y013366
X015300Y006366
X015300Y010366
X006300Y016366
X006300Y009366
X015300Y018366
X006300Y013366
X006300Y006366
X006300Y010366
X015300Y008366
X015300Y012366
X015300Y005366
X006300Y018366
T102
X017900Y004766
X017900Y002766
X003700Y004766
X003600Y019466
X003700Y002766
X003600Y017466
T103
X017900Y004766
X003700Y004766
X017900Y002766
X003700Y002766
X003600Y019466
X003600Y017466
T104
X009266Y012100
X012266Y011100
X018200Y016866
X012700Y004366
X012266Y012100
X018200Y017866
X018200Y018866
X008700Y018266
X009266Y011100
X012700Y018266
X008700Y004366
T00
M30
